<svg version="1.1" id="Layer_1" xmlns="http://www.w3.org/2000/svg" xmlns:xlink="http://www.w3.org/1999/xlink" x="0px" y="0px"
	 width="100%" viewBox="0 0 592 592" enable-background="new 0 0 592 592" xml:space="preserve">
<path fill="#696CFF" opacity="1.000000" stroke="none"
	d="
M312.896820,552.366455 
	C304.406860,552.361938 296.406494,552.263550 288.409882,552.394287 
	C285.145142,552.447632 283.591614,551.565491 283.602081,547.922729 
	C283.698395,514.427795 283.673309,480.932434 283.625153,447.437286 
	C283.621429,444.844543 284.466614,443.008453 286.698090,441.635620 
	C289.323914,440.020233 291.821899,438.196930 294.241852,436.554382 
	C293.633545,434.549133 292.597626,434.454773 291.332581,434.800232 
	C270.009216,440.622437 248.550262,439.520294 227.267639,435.119141 
	C214.201263,432.417084 202.348297,426.117310 190.704010,419.688690 
	C181.336746,414.517151 172.915894,407.779541 165.867264,400.004333 
	C155.902237,389.012085 147.862991,376.544220 142.733780,362.271332 
	C131.893677,332.106964 131.493332,301.925507 141.231369,271.507507 
	C146.942276,253.668716 155.944016,237.550583 166.240067,221.957214 
	C174.640945,209.234085 184.972473,198.107819 194.145493,186.039062 
	C196.556595,182.866821 200.371948,180.761902 204.079483,177.727249 
	C199.132889,174.806290 194.824554,172.239136 190.494415,169.709305 
	C173.673599,159.882034 164.730301,144.709000 161.725571,125.966156 
	C158.346176,104.886139 160.659378,84.427872 171.716904,65.775780 
	C180.038452,51.738827 191.340683,41.207859 209.026642,41.779995 
	C220.711349,42.157986 230.727997,47.135788 238.491669,56.027412 
	C239.789978,57.514332 241.138168,59.812946 239.638611,61.949947 
	C238.041687,64.225761 235.875320,62.603222 234.222336,61.913971 
	C229.332108,59.874886 224.655853,57.493992 219.454834,56.036079 
	C205.457748,52.112530 196.764633,57.586418 190.655624,67.030869 
	C175.863998,89.898544 172.462265,114.481544 183.419556,140.024231 
	C188.618454,152.143402 198.862167,159.498917 210.051163,165.695938 
	C216.566589,169.304504 222.963959,173.129410 229.358200,176.951126 
	C230.839233,177.836334 232.955933,178.741592 231.655685,181.141144 
	C230.654724,182.988388 229.125656,183.000732 227.003220,182.726425 
	C222.538177,182.149414 218.109406,181.545990 213.926468,179.891602 
	C211.312607,178.857803 209.707672,180.076523 208.371429,181.887085 
	C198.146027,195.742111 187.763321,209.493637 178.978241,224.343262 
	C168.659348,241.785461 159.358917,259.646301 154.134842,279.441193 
	C145.293625,312.941833 149.304733,344.624847 167.641876,374.018402 
	C177.055756,389.108398 190.634109,400.097412 206.520142,408.078339 
	C225.761383,417.744995 245.927567,423.715729 267.731964,422.619141 
	C271.364807,422.436462 275.007721,422.050751 278.592957,421.445007 
	C281.848938,420.894836 283.726593,419.216705 283.714600,415.349884 
	C283.597168,377.522308 283.635590,339.694183 283.658356,301.866241 
	C283.659515,299.941528 283.149994,298.395844 281.857574,296.884644 
	C264.122162,276.146851 235.724487,269.633148 210.324493,280.594330 
	C208.526016,281.370483 206.894440,281.644745 204.759674,280.202972 
	C206.884918,276.093933 210.216049,272.972595 214.136154,271.203033 
	C235.906021,261.376068 257.254730,262.641510 277.989716,274.485962 
	C278.853668,274.979492 279.784973,275.357758 280.695221,275.766663 
	C281.422394,276.093353 282.165344,276.384857 283.615631,276.990082 
	C283.615631,272.209686 283.597778,267.949493 283.621552,263.689514 
	C283.638947,260.569733 281.542389,260.495605 279.211273,260.338623 
	C268.966064,259.648712 258.805695,258.606781 248.873016,255.607452 
	C233.650970,251.010895 220.633759,242.847488 209.019440,232.207901 
	C208.038101,231.308929 207.145386,230.312103 206.225449,229.347443 
	C204.111206,227.130356 200.394699,225.278976 202.060181,221.638306 
	C203.533295,218.418137 207.477783,218.614090 210.473160,218.747971 
	C233.936096,219.796692 256.534760,215.271194 278.911682,208.838623 
	C282.518005,207.801926 283.882477,206.174194 283.688354,202.589386 
	C283.499481,199.100204 283.922150,195.565948 283.582153,192.099960 
	C283.167267,187.870697 284.435120,185.237778 288.658905,183.794235 
	C298.196198,180.534729 307.636597,176.991684 317.108582,173.566818 
	C320.881348,178.754456 318.450378,184.382339 319.800934,189.828613 
	C323.435364,188.313385 326.165283,183.724030 331.237885,186.773468 
	C329.060883,191.341919 326.027740,195.188766 322.402008,198.549942 
	C319.521393,201.220383 318.212067,204.272095 318.281250,208.260330 
	C318.456787,218.377335 318.339569,228.499405 318.339569,238.748016 
	C322.224640,239.274780 325.126648,237.848999 328.007751,236.876587 
	C340.230194,232.751389 351.477203,227.031586 362.105896,219.393463 
	C371.971436,212.303741 378.818085,203.443008 383.572021,192.827805 
	C388.679993,181.422134 388.636841,169.308502 386.099701,157.193375 
	C385.615051,154.878952 385.357391,152.617645 386.256256,150.310364 
	C388.836792,149.628571 390.003693,151.555618 390.985901,153.127228 
	C399.944641,167.461365 402.424744,183.049011 396.985474,198.923386 
	C391.885620,213.807053 382.491425,225.964935 369.583069,235.520660 
	C355.307098,246.088791 339.224060,252.080109 322.246979,256.079071 
	C319.005005,256.842712 318.277344,258.114136 318.299896,261.040161 
	C318.394989,273.371002 318.365204,285.703156 318.304932,298.034424 
	C318.295624,299.940430 318.878632,302.012604 316.976379,304.335297 
	C311.235168,299.735352 306.150909,294.219849 297.982635,290.709015 
	C311.183472,304.364838 318.742737,319.967316 325.388428,335.986084 
	C332.039032,352.016876 333.997223,369.191559 335.728424,387.250275 
	C343.611603,379.953217 346.685425,371.281158 348.502777,362.292786 
	C351.544434,347.249390 347.614349,332.978394 341.849609,319.248322 
	C337.045013,307.805023 331.553741,296.650055 326.369324,285.366180 
	C326.161407,284.913605 325.888794,284.464600 325.804260,283.986053 
	C325.457184,282.020874 323.244446,279.561493 325.873169,278.214233 
	C328.343506,276.948181 329.442963,279.721222 330.750092,281.384338 
	C340.101837,293.282990 348.601898,305.898773 354.473999,319.739868 
	C362.303864,338.195679 366.024078,357.641846 359.010254,377.394653 
	C355.847504,386.301849 351.177704,394.598969 344.510101,401.569733 
	C337.045715,409.373505 329.549408,417.132782 320.299255,422.896332 
	C319.048431,423.675690 318.356873,424.605927 318.360779,426.105469 
	C318.381073,433.895294 318.370239,441.685242 318.370239,450.903320 
	C322.868134,445.037842 326.563568,440.294800 330.177765,435.490631 
	C338.823151,423.998840 348.841125,413.673859 358.020538,402.638245 
	C364.808716,394.477325 371.224579,385.996674 378.224091,378.025360 
	C382.365845,373.308502 386.119873,368.388397 394.344940,369.339722 
	C403.140686,370.357086 412.265991,370.471130 421.201874,368.773651 
	C423.188263,368.396332 425.584045,368.069214 426.773468,370.769440 
	C428.013458,373.584442 425.352997,374.164642 424.139862,375.437164 
	C412.460938,387.687927 400.408966,399.599823 389.114288,412.192200 
	C384.250793,417.614502 378.985535,422.601746 374.094757,427.966522 
	C370.626099,431.771332 367.167664,435.586334 363.645538,439.341339 
	C358.640533,444.677307 358.294342,446.324677 363.154205,451.816589 
	C373.425690,463.423889 382.192749,476.196716 391.483948,488.529114 
	C398.675232,498.074188 406.031006,507.541046 412.858429,517.392578 
	C419.711334,527.280945 427.278564,536.680298 434.705353,546.158630 
	C435.854462,547.625183 436.545837,548.905518 436.122925,550.614197 
	C435.557831,552.897400 433.528137,552.373962 431.989899,552.378235 
	C420.532440,552.410034 409.073700,552.429993 397.617645,552.278870 
	C393.885071,552.229675 392.597717,548.703064 390.847412,546.301941 
	C381.689697,533.739136 372.958984,520.861816 363.671844,508.397827 
	C356.593353,498.897919 350.304230,488.845398 342.857178,479.592377 
	C339.706146,475.677185 337.855560,470.710907 334.161591,467.060638 
	C328.758545,471.326416 325.256866,477.096710 320.491272,481.698792 
	C318.281921,483.832275 318.329102,486.774475 318.333344,489.653107 
	C318.361603,508.816986 318.278046,527.981384 318.402283,547.144531 
	C318.426422,550.864075 317.493225,552.954102 312.896820,552.366455 
M301.148834,219.677567 
	C302.742859,217.922119 304.596771,216.354736 305.585663,213.750885 
	C287.273163,226.262543 261.837280,232.603729 228.989243,232.773331 
	C230.581848,233.632568 231.529770,234.194305 232.519043,234.670105 
	C246.485306,241.387421 261.260101,244.559113 276.718414,244.648911 
	C283.583374,244.688812 283.562897,244.639572 283.662048,237.853195 
	C283.697449,235.432251 283.153900,232.904816 286.157867,231.425415 
	C291.728973,228.681686 296.398560,224.682968 301.148834,219.677567 
M318.339508,374.623413 
	C318.339508,384.461151 318.339508,394.298889 318.339508,404.136627 
	C318.915619,404.295654 319.491699,404.454712 320.067810,404.613739 
	C321.824097,401.099792 328.179535,401.427338 326.706482,395.157532 
	C324.422241,385.435089 322.892395,375.512268 318.334106,366.289276 
	C318.334106,368.752014 318.334106,371.214783 318.339508,374.623413 
z" > </path>
<path fill="#696CFF" opacity="1.000000" stroke="none" 
	d="
M362.008972,60.933060 
	C354.860443,50.021896 345.686646,41.933300 333.402954,38.537357 
	C318.605469,34.446453 303.422852,38.937588 292.413940,53.103451 
	C288.658722,57.935532 285.437805,63.182247 281.695465,68.025238 
	C280.192169,69.970657 278.601685,73.304947 275.481323,71.813896 
	C272.460815,70.370560 273.872192,67.280479 274.385620,64.672333 
	C277.756622,47.548477 287.551025,34.628033 301.981628,25.742664 
	C319.451996,14.985607 341.516205,19.838516 357.150543,31.021330 
	C372.915558,42.297653 381.532043,58.141361 384.860321,76.660255 
	C386.326202,84.816689 386.652954,93.576897 383.926697,101.843819 
	C383.364410,103.548897 382.979370,106.203415 380.380493,106.054100 
	C377.884460,105.910698 377.010468,103.900505 376.529022,101.559738 
	C375.397278,96.057213 373.997589,90.610458 372.786316,85.123466 
	C370.869812,76.441612 366.825989,68.716385 362.008972,60.933060 
z"> </path>
<path fill="#696CFF" opacity="1.000000" stroke="none" 
	d="
M283.714600,134.551910 
	C287.845062,145.552505 287.864655,156.247711 282.965942,166.572144 
	C280.883209,170.961746 269.289276,173.132187 264.755859,170.207764 
	C259.371399,166.734344 255.573837,162.056656 255.649185,155.144089 
	C255.692734,151.148788 255.552414,147.149063 255.685394,143.157684 
	C255.905289,136.557190 258.725220,131.301041 264.895630,128.670197 
	C270.440552,126.306068 275.870026,127.386230 280.953827,130.688309 
	C282.406067,131.631577 282.247375,133.348236 283.714600,134.551910 
z"> </path>
<path fill="#696CFF" opacity="1.000000" stroke="none" 
	d="
M243.460266,148.412643 
	C239.529617,151.437317 235.639145,152.341934 231.719513,149.500580 
	C227.748657,146.622101 226.811020,142.658859 228.296646,137.992798 
	C228.992767,135.806381 228.622925,133.417603 229.757507,131.233017 
	C231.853119,127.198013 235.107147,125.293716 239.478012,125.936272 
	C244.257690,126.638924 247.230240,130.137344 247.278915,134.851471 
	C247.327545,139.562195 245.999191,143.992935 243.460266,148.412643 
z"> </path>
<path fill="#696CFF" opacity="1.000000" stroke="none" 
	d="
M292.643799,136.151184 
	C292.688110,133.353882 290.857117,131.055649 292.268585,128.509262 
	C293.870758,125.618774 295.936676,123.134384 299.349243,122.834366 
	C303.032959,122.510498 305.743774,124.689392 307.330841,127.800705 
	C309.061859,131.194336 310.103027,134.908997 310.312286,138.752792 
	C310.613312,144.281830 308.117432,147.465027 303.095184,148.207672 
	C299.556213,148.731003 295.042023,145.425003 293.804169,141.321579 
	C293.329468,139.747910 293.030060,138.121384 292.643799,136.151184 
z"> </path>
</svg>